# xmcd
#
# Track frame offsets: 
#        150
#        88285
#        112757
#        134812
#        169562
#        188722
#        205162
#        232137
#        258042
#        288095
#        307287
#        327077
#
# Disc length: 4732 seconds
#
# Revision: 4
# Processed by: cddbd v1.5.2PL0 Copyright (c) Steve Scherf et al.
# Submitted via: ExactAudioCopy v1.0b1
#
DISCID=aa127a0c
DTITLE=Sonny Rollins - The Freelance Years - The Complete Riverside and 
DTITLE=Contemporary Recordings - CD5
DYEAR=2000
DGENRE=Jazz
TTITLE0=The Freedom Suite (mono)
TTITLE1=I've Told Ev'ry Little Star (stereo)
TTITLE2=Rock-A-Bye Your Baby With A Dixie Melody (stereo)
TTITLE3=How High The Moon (stereo)
TTITLE4=You (stereo)
TTITLE5=I've Found A New Baby (stereo)
TTITLE6=Alone Together (stereo)
TTITLE7=The Song Is You (stereo)
TTITLE8=In The Chapel In The Moonlight (stereo)
TTITLE9=You (alt) (stereo)
TTITLE10=I've Found A New Baby (alt) (stereo)
TTITLE11=The Song Is You (alt) (stereo)
EXTD=YEAR: 2000
EXTT0=
EXTT1=
EXTT2=
EXTT3=
EXTT4=
EXTT5=
EXTT6=
EXTT7=
EXTT8=
EXTT9=
EXTT10=
EXTT11=
PLAYORDER=
